<svg width="120" height="96" viewBox="0 0 120 96" fill="none" xmlns="http://www.w3.org/2000/svg">
<path d="M72.5216 0L58.3264 14.3506L68.5311 24.6644L70.484 22.6889L71.2147 21.9488L71.9455 22.6889L96.2494 47.26L96.9814 47.9987L96.2494 48.7388L71.9455 73.3099L71.216 74.0486L70.4852 73.3099L67.9898 70.7872L57.7852 81.1035L72.5192 96L120 47.9987L72.5216 0Z" fill="#010101"/>
<path d="M71.2173 25.5156L70.3007 26.4448L66.6119 30.1752L84.2353 47.9914L66.6094 65.8089L69.7594 68.9922L71.2173 70.4672L93.4486 47.9914L71.2173 25.5156Z" fill="#FFC528"/>
<path d="M3.83346 63.8567V37.6063H0V32.0781H9.68964V63.8567H3.83346Z" fill="#FFC528"/>
<path d="M24.499 63.8995C22.8641 63.8995 21.3576 63.6285 19.9784 63.0839C18.6016 62.538 17.4144 61.7866 16.4255 60.8259C15.4353 59.8665 14.6609 58.7332 14.101 57.4296C13.5398 56.1248 13.2617 54.7267 13.2617 53.2352C13.2617 51.7438 13.4775 50.3255 13.9064 48.8921C14.3379 47.4587 14.9253 46.1967 15.6723 45.1075L23.8093 32.0781H30.7006L23.8093 42.4827C24.4142 42.3075 25.0327 42.2217 25.6625 42.2217C27.0405 42.2217 28.3312 42.489 29.5383 43.0261C30.7442 43.5644 31.798 44.3107 32.7034 45.2676C33.6062 46.227 34.3183 47.3654 34.8346 48.6841C35.3509 50.0078 35.6078 51.464 35.6078 53.0613C35.6078 54.6586 35.3297 56.1159 34.7697 57.4359C34.2098 58.7571 33.4354 59.8968 32.4452 60.8537C31.4563 61.8105 30.2766 62.5569 28.9148 63.0965C27.5505 63.6323 26.0777 63.8995 24.499 63.8995ZM24.3718 58.5466C25.1163 58.5466 25.8196 58.4016 26.4793 58.1104C27.1402 57.8217 27.7226 57.422 28.2252 56.914C28.7265 56.4059 29.1218 55.8109 29.4086 55.1288C29.6942 54.4468 29.8389 53.7131 29.8389 52.9314C29.8389 52.1498 29.6942 51.4589 29.4086 50.7756C29.1218 50.0936 28.7265 49.5048 28.2252 49.0131C27.7226 48.519 27.1402 48.1269 26.4793 47.8369C25.8196 47.547 25.1163 47.4007 24.3718 47.4007C23.6273 47.4007 22.9277 47.547 22.2842 47.8369C21.6357 48.1269 21.0671 48.5253 20.5807 49.0346C20.0944 49.5414 19.704 50.1301 19.4197 50.797C19.1316 51.464 18.9882 52.1901 18.9882 52.9718C18.9882 53.7534 19.1316 54.4455 19.4197 55.1276C19.704 55.8096 20.0931 56.4046 20.5807 56.9127C21.0671 57.4208 21.637 57.8204 22.2842 58.1091C22.9277 58.4003 23.6248 58.5453 24.3718 58.5453" fill="#FFC528"/>
<path d="M49.0886 63.8995C47.45 63.8995 45.9436 63.6285 44.5643 63.0839C43.1888 62.538 42.0029 61.7866 41.0139 60.8259C40.0238 59.8665 39.2481 58.7332 38.6882 57.4296C38.1282 56.1248 37.8477 54.7267 37.8477 53.2352C37.8477 51.7438 38.0621 50.3255 38.4936 48.8921C38.9239 47.4587 39.5137 46.1967 40.2582 45.1075L48.394 32.0781H55.2865L48.394 42.4827C48.9989 42.3075 49.6149 42.2217 50.2484 42.2217C51.6264 42.2217 52.9184 42.489 54.123 43.0261C55.3289 43.5644 56.3839 44.3107 57.2881 45.2676C58.1922 46.227 58.9042 47.3654 59.4205 48.6841C59.938 50.0078 60.1949 51.464 60.1949 53.0613C60.1949 54.6586 59.9156 56.1159 59.3544 57.4359C58.7957 58.7571 58.0188 59.8968 57.0299 60.8537C56.0397 61.8105 54.8613 62.5569 53.4982 63.0965C52.134 63.6323 50.6637 63.8995 49.0874 63.8995M48.9589 58.5466C49.7034 58.5466 50.408 58.4016 51.0677 58.1104C51.7262 57.8217 52.3085 57.422 52.8111 56.914C53.3137 56.4059 53.709 55.8109 53.9946 55.1288C54.2814 54.4468 54.4273 53.7131 54.4273 52.9314C54.4273 52.1498 54.2814 51.4589 53.9946 50.7756C53.7102 50.0936 53.3137 49.5048 52.8111 49.0131C52.3085 48.519 51.7249 48.1269 51.0677 47.8369C50.408 47.547 49.7034 47.4007 48.9589 47.4007C48.2145 47.4007 47.5161 47.547 46.8689 47.8369C46.2254 48.1269 45.6567 48.5253 45.1679 49.0346C44.679 49.5414 44.2925 50.1301 44.0069 50.797C43.7188 51.464 43.5742 52.1901 43.5742 52.9718C43.5742 53.7534 43.7188 54.4455 44.0069 55.1276C44.2925 55.8096 44.679 56.4046 45.1679 56.9127C45.6555 57.4208 46.2241 57.8204 46.8689 58.1091C47.5149 58.4003 48.2107 58.5453 48.9589 58.5453" fill="#FFC528"/>
<path d="M5.48229 72.1587V70.2866L3.87109 67.7109H4.91239L5.94745 69.4709L6.9613 67.7109H7.98514L6.3677 70.2929V72.1587H5.48229Z" fill="#FFC528"/>
<path d="M8.4178 67.7046H9.30571V70.1138C9.30571 70.4958 9.31693 70.7442 9.33813 70.8576C9.37679 71.0392 9.46658 71.1854 9.60999 71.2964C9.7534 71.4073 9.94919 71.4615 10.1974 71.4615C10.4455 71.4615 10.6401 71.4098 10.7673 71.3052C10.8957 71.2006 10.9718 71.0732 10.998 70.9219C11.0242 70.7707 11.0366 70.5185 11.0366 70.1668V67.7059H11.9245V70.042C11.9245 70.5765 11.9008 70.9535 11.8522 71.1741C11.8036 71.3947 11.7163 71.58 11.5866 71.7326C11.4581 71.8839 11.2848 72.0049 11.069 72.0957C10.8533 72.1864 10.5715 72.2305 10.2223 72.2305C9.80204 72.2305 9.48279 72.1814 9.2658 72.083C9.04881 71.9847 8.87672 71.8574 8.75077 71.7011C8.62481 71.5447 8.54126 71.3796 8.50136 71.2081C8.44274 70.9535 8.41406 70.5778 8.41406 70.0798V67.7071L8.4178 67.7046ZM9.17477 67.45V66.7188H9.89806V67.45H9.17477ZM10.4655 67.45V66.7188H11.1913V67.45H10.4655Z" fill="#FFC528"/>
<path d="M12.8789 72.1587V67.7109H13.7668V69.6865L15.5613 67.7109H16.756L15.0999 69.4431L16.847 72.1587H15.6973L14.4876 70.071L13.7668 70.8148V72.1587H12.8789Z" fill="#FFC528"/>
<path d="M17.3008 67.7109H18.9245C19.2911 67.7109 19.5692 67.7399 19.7612 67.7954C20.0194 67.8723 20.2401 68.0085 20.4247 68.2051C20.608 68.4018 20.7489 68.6413 20.8449 68.925C20.9409 69.2099 20.9883 69.5591 20.9883 69.9764C20.9883 70.3433 20.9434 70.6585 20.8537 70.9232C20.7439 71.2472 20.5868 71.5094 20.3823 71.7086C20.2276 71.8612 20.0206 71.9784 19.7587 72.0641C19.5629 72.1272 19.3011 72.1587 18.9718 72.1587H17.3008V67.7109ZM18.1887 68.4636V71.4098H18.8521C19.1003 71.4098 19.2799 71.396 19.3896 71.367C19.533 71.3304 19.6527 71.2686 19.7488 71.1817C19.8435 71.0947 19.9209 70.9522 19.9807 70.7518C20.0406 70.5526 20.0705 70.2815 20.0705 69.9373C20.0705 69.5932 20.0406 69.3297 19.9807 69.1456C19.9209 68.9616 19.8373 68.8178 19.7288 68.7145C19.6203 68.6111 19.4831 68.5417 19.3173 68.5052C19.1926 68.4762 18.9506 68.4623 18.5877 68.4623H18.1887V68.4636Z" fill="#FFC528"/>
<path d="M25.7076 72.1587H24.7411L24.357 71.1489H22.5986L22.2357 72.1587H21.293L23.0064 67.7109H23.9455L25.7076 72.1587ZM24.0714 70.3988L23.4653 68.7485L22.8705 70.3988H24.0714Z" fill="#FFC528"/>
<path d="M25.957 70.718L26.8212 70.6335C26.8736 70.926 26.9784 71.1429 27.138 71.279C27.2976 71.4164 27.5121 71.4858 27.7815 71.4858C28.0671 71.4858 28.2828 71.424 28.4287 71.3017C28.5734 71.1794 28.6457 71.0357 28.6457 70.8718C28.6457 70.7672 28.6158 70.6764 28.5547 70.6033C28.4935 70.5302 28.3875 70.4659 28.2354 70.4104C28.1319 70.3738 27.895 70.3095 27.5246 70.2162C27.0482 70.0965 26.714 69.9502 26.5219 69.7763C26.2513 69.5317 26.1167 69.2329 26.1167 68.8812C26.1167 68.6555 26.1803 68.4424 26.3075 68.2458C26.4347 68.0491 26.618 67.8978 26.8562 67.7957C27.0956 67.6923 27.3837 67.6406 27.7216 67.6406C28.2741 67.6406 28.6893 67.7629 28.9687 68.0075C29.248 68.2521 29.3939 68.5786 29.4076 68.9871L28.5197 69.0261C28.4823 68.7979 28.4 68.6328 28.2753 68.5332C28.1506 68.4323 27.9623 68.3832 27.7129 68.3832C27.4635 68.3832 27.2527 68.4361 27.1068 68.5445C27.0133 68.6126 26.9659 68.7047 26.9659 68.8206C26.9659 68.9253 27.0095 69.0161 27.0981 69.0904C27.2103 69.185 27.4822 69.2846 27.9149 69.388C28.3464 69.4913 28.6669 69.5972 28.8739 69.7082C29.0809 69.8179 29.243 69.9691 29.3603 70.1608C29.4775 70.3524 29.5361 70.5881 29.5361 70.8693C29.5361 71.1239 29.4663 71.3635 29.3266 71.5854C29.1869 71.8085 28.9886 71.9737 28.7317 72.0808C28.4761 72.1892 28.1568 72.2435 27.774 72.2435C27.2178 72.2435 26.7901 72.1136 26.492 71.8539C26.194 71.5942 26.0156 71.2147 25.9583 70.718H25.957ZM26.9684 73.3882V73.0301C27.1742 73.0528 27.3637 73.0629 27.5358 73.0629C27.7079 73.0629 27.8463 73.0301 27.9324 72.9658C27.9985 72.9167 28.0309 72.8549 28.0309 72.778C28.0309 72.7087 27.9997 72.6494 27.9386 72.599C27.8763 72.5485 27.7802 72.5233 27.6505 72.5233C27.5208 72.5233 27.3911 72.5435 27.2577 72.5838L27.335 72.2838C27.4909 72.2296 27.6593 72.2018 27.8388 72.2018C28.0895 72.2018 28.2791 72.2573 28.4087 72.3695C28.5384 72.4805 28.6033 72.6166 28.6033 72.7755C28.6033 72.9532 28.531 73.0982 28.3875 73.2091C28.193 73.3604 27.9149 73.4361 27.5533 73.4361C27.2951 73.4361 27.1006 73.4197 26.9684 73.3869V73.3882Z" fill="#FFC528"/>
<path d="M30.25 72.1587V67.7109H31.1379V72.1587H30.25Z" fill="#FFC528"/>
<path d="M31.9727 72.1587V67.7109H33.302L34.1001 70.7442L34.8895 67.7109H36.2226V72.1587H35.3971V68.6577L34.5241 72.1587H33.6687L32.7982 68.6577V72.1587H31.9727Z" fill="#FFC528"/>
<path d="M41.0747 72.1587H40.1083L39.7242 71.1489H37.9658L37.6029 72.1587H36.6602L38.3736 67.7109H39.3127L41.0747 72.1587ZM39.4386 70.3988L38.8325 68.7485L38.2377 70.3988H39.4386Z" fill="#FFC528"/>
<path d="M5.45145 79.9165L3.87891 75.4688H4.84288L5.95651 78.7604L7.03396 75.4688H7.97674L6.40171 79.9165H5.45145Z" fill="#FFC528"/>
<path d="M12.1955 77.7219C12.1955 78.6548 11.8825 79.3192 11.2565 79.7176C10.9647 79.9042 10.613 79.9975 10.2002 79.9975C9.73758 79.9975 9.35972 79.8765 9.06541 79.6331C8.5192 79.1805 8.24609 78.5426 8.24609 77.7219C8.24609 77.6311 8.25732 77.5 8.27852 77.3311H11.2552C11.2191 76.9958 11.1168 76.7247 10.946 76.5217C10.7539 76.291 10.4983 76.175 10.1803 76.175C9.69767 76.175 9.38341 76.4183 9.2375 76.9062L8.35833 76.7033C8.45685 76.2721 8.67259 75.9443 9.0068 75.7174C9.31856 75.5056 9.70141 75.3984 10.1528 75.3984C10.8088 75.3984 11.3201 75.6241 11.6867 76.0754C12.0247 76.494 12.1943 77.0437 12.1943 77.7232L12.1955 77.7219ZM11.2552 78.0774H9.18513C9.23501 78.4733 9.35348 78.7658 9.53929 78.9536C9.7251 79.1415 9.94583 79.236 10.2002 79.236C10.4821 79.236 10.7153 79.144 10.8998 78.9612C11.0832 78.7784 11.2029 78.4834 11.2565 78.0774H11.2552Z" fill="#FFC528"/>
<path d="M14.6211 79.919V75.5078H15.5102V79.1689H17.7188V79.9177H14.6211V79.919Z" fill="#FFC528"/>
<path d="M18.1719 77.7257C18.1719 77.2731 18.2392 76.8924 18.3727 76.5848C18.4724 76.3578 18.6096 76.1549 18.7829 75.9746C18.9563 75.7943 19.1458 75.6619 19.3516 75.5749C19.6259 75.4577 19.9415 75.3984 20.2994 75.3984C20.9478 75.3984 21.4666 75.6014 21.8557 76.0086C22.2448 76.4146 22.4393 76.9806 22.4393 77.7043C22.4393 78.4279 22.246 78.9839 21.8594 79.3898C21.4728 79.7958 20.9578 79.9987 20.3106 79.9987C19.6634 79.9987 19.1359 79.797 18.7505 79.3936C18.3639 78.9902 18.1719 78.4342 18.1719 77.727V77.7257ZM19.0872 77.6954C19.0872 78.1985 19.2019 78.5805 19.4327 78.8414C19.6621 79.1011 19.9552 79.231 20.3093 79.231C20.6635 79.231 20.9541 79.1024 21.181 78.8439C21.408 78.5855 21.5215 78.1985 21.5215 77.6828C21.5215 77.1672 21.4105 76.7928 21.1898 76.5419C20.969 76.291 20.6747 76.1662 20.3093 76.1662C19.9439 76.1662 19.6484 76.2935 19.4239 76.5469C19.1995 76.8003 19.0885 77.1836 19.0885 77.6954H19.0872Z" fill="#FFC528"/>
<path d="M25.179 78.2842V77.5353H27.0933V79.3079C26.9075 79.4894 26.6381 79.6508 26.2852 79.7895C25.9323 79.9281 25.5744 79.9975 25.2127 79.9975C24.7525 79.9975 24.351 79.9004 24.0093 79.705C23.6676 79.5096 23.4107 79.231 23.2386 78.8679C23.0665 78.5048 22.9805 78.1102 22.9805 77.6828C22.9805 77.2202 23.0765 76.8079 23.2685 76.4486C23.4606 76.088 23.7412 75.8119 24.1116 75.6203C24.3934 75.4728 24.7451 75.3984 25.1653 75.3984C25.7115 75.3984 26.138 75.5144 26.4448 75.7451C26.7516 75.9771 26.9499 76.2973 27.0372 76.7058L26.1555 76.8735C26.0931 76.6554 25.9772 76.4826 25.8051 76.3566C25.6342 76.2305 25.421 76.1675 25.1641 76.1675C24.7762 76.1675 24.467 76.2923 24.2388 76.5406C24.0093 76.789 23.8946 77.1584 23.8946 77.6475C23.8946 78.1758 24.0105 78.5716 24.2425 78.8351C24.4744 79.0986 24.7787 79.231 25.1553 79.231C25.3412 79.231 25.5282 79.1944 25.7153 79.12C25.9023 79.0457 26.0632 78.9561 26.1966 78.8515V78.2867H25.179V78.2842Z" fill="#FFC528"/>
<path d="M27.8867 79.9155V75.4678H28.7746V79.9155H27.8867ZM27.9204 75.2131V74.4062H28.7484V75.2131H27.9204Z" fill="#FFC528"/>
<path d="M29.3945 78.4758L30.2587 78.3913C30.3111 78.6838 30.4159 78.9007 30.5755 79.0368C30.7351 79.1742 30.9496 79.2436 31.219 79.2436C31.5046 79.2436 31.7203 79.1818 31.8662 79.0595C32.0109 78.9372 32.0832 78.7935 32.0832 78.6296C32.0832 78.525 32.0533 78.4342 31.9922 78.3611C31.931 78.288 31.825 78.2237 31.6729 78.1682C31.5694 78.1316 31.3325 78.0673 30.9621 77.9741C30.4857 77.8543 30.1515 77.708 29.9594 77.5341C29.6888 77.2895 29.5542 76.9907 29.5542 76.639C29.5542 76.4133 29.6178 76.2002 29.745 76.0036C29.8722 75.8069 30.0555 75.6556 30.2937 75.5535C30.5331 75.4501 30.8212 75.3984 31.1591 75.3984C31.7116 75.3984 32.1268 75.5207 32.4062 75.7653C32.6855 76.0099 32.8314 76.3364 32.8451 76.7449L31.9572 76.7839C31.9198 76.5558 31.8375 76.3906 31.7128 76.291C31.5881 76.1902 31.3998 76.141 31.1504 76.141C30.901 76.141 30.6902 76.1939 30.5443 76.3024C30.4508 76.3704 30.4034 76.4625 30.4034 76.5785C30.4034 76.6831 30.447 76.7739 30.5356 76.8482C30.6478 76.9428 30.9197 77.0424 31.3524 77.1458C31.7839 77.2491 32.1044 77.355 32.3114 77.466C32.5184 77.5757 32.6805 77.727 32.7978 77.9186C32.915 78.1102 32.9736 78.346 32.9736 78.6271C32.9736 78.8818 32.9038 79.1213 32.7641 79.3432C32.6244 79.5663 32.4261 79.7315 32.1692 79.8386C31.9136 79.9471 31.5943 80.0013 31.2115 80.0013C30.6553 80.0013 30.2276 79.8714 29.9295 79.6117C29.6315 79.352 29.4531 78.9725 29.3958 78.4758H29.3945Z" fill="#FFC528"/>
<path d="M34.708 79.9165V76.2214H33.4023V75.4688H36.8978V76.2214H35.5959V79.9165H34.708Z" fill="#FFC528"/>
<path d="M37.4453 79.9155V75.4678H38.3332V79.9155H37.4453ZM37.479 75.2131V74.4062H38.307V75.2131H37.479Z" fill="#FFC528"/>
<path d="M39.1914 79.9165V75.4688H40.0793V77.4443L41.8738 75.4688H43.0685L41.4124 77.201L43.1595 79.9165H42.0098L40.8001 77.8288L40.0793 78.5726V79.9165H39.1914Z" fill="#FFC528"/>
<path d="M47.5865 79.9165H46.62L46.2359 78.9067H44.4775L44.1147 79.9165H43.1719L44.8853 75.4688H45.8244L47.5865 79.9165ZM45.9503 78.1566L45.3443 76.5063L44.7494 78.1566H45.9503Z" fill="#FFC528"/>
</svg>
