<svg width="104" height="95" viewBox="0 0 104 95" fill="none" xmlns="http://www.w3.org/2000/svg">
<rect x="0.5" y="0.5" width="94" height="94" rx="47" fill="#1F1F1F" stroke="#E99F9F"/>
<path d="M32.556 34.136V32.578H43.272V34.136L39.776 34.554C39.7507 36.15 39.7253 37.7713 39.7 39.418C39.7 41.0647 39.7 42.7113 39.7 44.358V46.22C39.7 47.8413 39.7 49.4753 39.7 51.122C39.7253 52.7433 39.7507 54.3773 39.776 56.024L43.272 56.442V58H32.556V56.442L36.052 56.024C36.1027 54.4027 36.128 52.756 36.128 51.084C36.128 49.3867 36.128 47.6513 36.128 45.878H23.854C23.854 47.8033 23.854 49.5893 23.854 51.236C23.8793 52.8827 23.9047 54.4913 23.93 56.062L27.388 56.442V58H16.672V56.442L20.168 56.024C20.2187 54.428 20.244 52.8067 20.244 51.16C20.244 49.5133 20.244 47.8667 20.244 46.22V44.358C20.244 42.7113 20.244 41.0773 20.244 39.456C20.244 37.8093 20.2187 36.1753 20.168 34.554L16.672 34.136V32.578H27.388V34.136L23.93 34.516C23.9047 36.1373 23.8793 37.7587 23.854 39.38C23.854 41.0013 23.854 42.572 23.854 44.092H36.128C36.128 42.42 36.128 40.7987 36.128 39.228C36.128 37.6573 36.1027 36.0993 36.052 34.554L32.556 34.136ZM50.6844 58.494C49.9244 58.494 49.2784 58.228 48.7464 57.696C48.2397 57.164 47.9864 56.5307 47.9864 55.796C47.9864 55.036 48.2397 54.39 48.7464 53.858C49.2784 53.326 49.9244 53.06 50.6844 53.06C51.4444 53.06 52.0777 53.326 52.5844 53.858C53.1164 54.39 53.3824 55.036 53.3824 55.796C53.3824 56.5307 53.1164 57.164 52.5844 57.696C52.0777 58.228 51.4444 58.494 50.6844 58.494ZM65.307 58.57C63.8883 58.57 62.5203 58.38 61.203 58C59.8856 57.5947 58.7836 57.1133 57.897 56.556L58.125 51.236H60.481L61.241 55.72C61.8236 56.0493 62.419 56.29 63.027 56.442C63.6603 56.594 64.3823 56.67 65.193 56.67C66.9916 56.67 68.423 56.2773 69.487 55.492C70.551 54.6813 71.083 53.5413 71.083 52.072C71.083 50.856 70.703 49.9187 69.943 49.26C69.2083 48.576 68.0303 47.9173 66.409 47.284L64.927 46.676C62.9763 45.916 61.393 44.9407 60.177 43.75C58.9863 42.534 58.391 40.9633 58.391 39.038C58.391 37.5687 58.7583 36.3147 59.493 35.276C60.253 34.2373 61.279 33.4393 62.571 32.882C63.863 32.2993 65.3196 32.008 66.941 32.008C68.2076 32.008 69.3603 32.1853 70.399 32.54C71.4376 32.8947 72.3623 33.376 73.173 33.984L72.945 38.962H70.627L69.829 34.668C68.8916 34.1613 67.853 33.908 66.713 33.908C65.269 33.908 64.053 34.2753 63.065 35.01C62.077 35.7193 61.583 36.7833 61.583 38.202C61.583 39.3673 61.9503 40.33 62.685 41.09C63.445 41.85 64.509 42.496 65.877 43.028L67.397 43.598C69.8796 44.5607 71.653 45.65 72.717 46.866C73.781 48.0567 74.313 49.5513 74.313 51.35C74.313 52.8447 73.9203 54.1367 73.135 55.226C72.375 56.29 71.3236 57.1133 69.981 57.696C68.6383 58.2787 67.0803 58.57 65.307 58.57ZM64.851 61.268L65.345 57.886H66.751L66.447 60.204C67.4096 60.356 68.233 60.6853 68.917 61.192C69.601 61.6987 69.943 62.408 69.943 63.32C69.943 64.1813 69.5756 64.9033 68.841 65.486C68.1316 66.0687 67.0803 66.36 65.687 66.36C65.1296 66.36 64.6483 66.322 64.243 66.246C63.863 66.17 63.5463 66.094 63.293 66.018L63.559 64.84C64.167 64.916 64.775 64.954 65.383 64.954C66.8523 64.954 67.587 64.384 67.587 63.244C67.587 62.6613 67.359 62.218 66.903 61.914C66.4723 61.61 65.7883 61.3947 64.851 61.268Z" fill="#8432A2"/>
</svg>
